<svg xmlns="http://www.w3.org/2000/svg" viewBox="150 335 295 175" role="img" aria-label="LZN">
  <g fill="#171313" transform="translate(0 841.89) scale(1 -1)">
    <path transform="translate(222.3662 364.5605)" d="M0 0h-18.273v127.461h-45.782v-129.509c0-9.901 8.027-17.929 17.928-17.93H0Z"/>
    <path transform="translate(397.3896 491.2324)" d="M0 0v-76.686l-37.136 66.461-.045.08-.117.194-3.336 5.932C-43.97-1.68-50.314-.005-57.602 0h-24.497v-146.649h39.24v76.705l37.156-66.496 3.296-6.08c3.296-6.08 9.731-10.208 17.132-10.209h24.513V0Z"/>
    <path transform="translate(270.6816 361.541)" d="M0 0 34.104 106.873l.573 1.786c.328 1.892.328 1.892.328 3.862 0 9.925-8.05 17.977-17.979 17.977l-.348-.018h-47.249v-16.96h25.839L-38.817 6.706l.003-.001c-.596-1.788-.932-3.695-.932-5.684 0-9.929 8.048-17.979 17.979-17.979h57.994V0Z"/>
    <path transform="translate(223.1533 497.2334)" d="m0 0 13.17-13.168L0-26.337l-13.168 13.169Z"/>
  </g>
</svg>
